<svg xmlns="http://www.w3.org/2000/svg" viewBox="0 0 44.03 44.14"><title>search</title><g id="89fe4f99-99cd-448f-b90c-e8814cd704c8" data-name="Слой 2"><g id="79520ff6-4d1f-41c3-99fa-a5a7f1ab8496" data-name="Головна"><path d="M40.56,43.56,26.32,29.32a.88.88,0,0,0-1.16-.07,14.34,14.34,0,0,1-3.74,2,15.38,15.38,0,0,1-5.27.89A15.59,15.59,0,0,1,4.69,27.45,15.5,15.5,0,0,1,0,16.07,15.49,15.49,0,0,1,4.69,4.69,15.52,15.52,0,0,1,16.09,0,15.45,15.45,0,0,1,27.47,4.69a15.54,15.54,0,0,1,4.67,11.38,15.41,15.41,0,0,1-2.95,9.13.88.88,0,0,0,.08,1.15l14.1,14a2.25,2.25,0,0,1,0,3.18h0A2,2,0,0,1,40.56,43.56ZM16.11,28a11.37,11.37,0,0,0,8.15-3.24,12.15,12.15,0,0,0,3.71-9,11.48,11.48,0,0,0-3.46-8,11.4,11.4,0,0,0-8.4-3.49A11.5,11.5,0,0,0,7.9,7.4a12.11,12.11,0,0,0-3.73,9.05,11.44,11.44,0,0,0,3.48,8A11.52,11.52,0,0,0,16.11,28Z" style="fill:#fff"/></g></g></svg>